<?xml version="1.0" encoding="UTF-8"?>
<svg id="_Слой_4" data-name=" Слой 4" xmlns="http://www.w3.org/2000/svg" version="1.1" viewBox="0 0 1080 1080">
  <defs>
    <style>
      .cls-1 {
        fill: #fff;
      }

      .cls-1, .cls-2 {
        stroke-width: 0px;
      }

      .cls-2 {
        fill: #009fe3;
      }
    </style>
  </defs>
  <rect class="cls-2" width="1080" height="1080"/>
  <path class="cls-1" d="M788.4,594.9l10.3-29.6,23.3-66.9,8.2-23.6,7.5-21.5c1.6-4.6,5.9-7.7,10.8-7.7h145c4.9,0,9.2-3.1,10.8-7.7l16-45.7c2.6-7.4-2.9-15.2-10.8-15.2h-169.3c-34.3,0-64.9,21.7-76.2,54.1l-5,14.5-10.2,29.1-8.2,23.6-23.3,66.9-10.3,29.6-13.7,39.2-7.5,21.5c-8.1,23.1,9.1,47.3,33.6,47.3h250.7c4.9,0,9.2-3.1,10.8-7.7l16-46c2.6-7.4-2.9-15.2-10.8-15.2h-195.2c-7.9,0-13.4-7.8-10.8-15.2l8.4-24h0Z"/>
  <path class="cls-1" d="M743.6,377.1h-217.3c-4.9,0-9.2,3.1-10.8,7.7l-16,45.7c-2.6,7.4,2.9,15.2,10.8,15.2h44.2c7.9,0,13.4,7.8,10.8,15.2l-4.9,14-8.2,23.6-23.3,66.9-10.3,29.6-13.7,39.2-18.7,53.6c-2.6,7.4,2.9,15.2,10.8,15.2h58c4.9,0,9.2-3.1,10.8-7.7l21.3-61.1,13.7-39.2,10.3-29.6,23.3-66.9,8.2-23.6,7.5-21.5c1.6-4.6,5.9-7.7,10.8-7.7h66.7c4.9,0,9.2-3.1,10.8-7.7l16-45.7c2.6-7.4-2.9-15.2-10.8-15.2h0Z"/>
  <path class="cls-1" d="M414.1,377.1c-4.9,0-9.2,3.1-10.8,7.7l-21.3,60.9-10.2,29.1-5.6,15.9c-1.6,4.6-5.9,7.7-10.8,7.7h-102.4c-7.9,0-13.4-7.8-10.8-15.2l2.9-8.4,10.2-29.1,18.6-53.4c2.6-7.4-2.9-15.2-10.8-15.2h-56.9c-4.9,0-9.2,3.1-10.8,7.7l-21.3,60.9-10.2,29.1-5.6,15.9c-1.6,4.6-5.9,7.7-10.8,7.7h-62c-4.9,0-9.2,3.1-10.8,7.7l-15.4,44c-2.6,7.4,2.9,15.2,10.8,15.2h46c7.9,0,13.4,7.8,10.8,15.2l-5,14.4-13.7,39.2-18.7,53.6c-2.6,7.4,2.9,15.2,10.8,15.2h56.9c4.9,0,9.2-3.1,10.8-7.7l21.4-61.1,13.7-39.2,7.7-21.9c1.6-4.6,5.9-7.7,10.8-7.7h102.4c7.9,0,13.4,7.8,10.8,15.2l-5,14.4-13.7,39.2-18.7,53.6c-2.6,7.4,2.9,15.2,10.8,15.2h57.6c4.9,0,9.2-3.1,10.8-7.7l21.4-61.1,13.7-39.2,10.3-29.6,23.3-66.9,8.2-23.6,10.2-29.1,18.6-53.4c2.6-7.4-2.9-15.2-10.8-15.2h-57.6Z"/>
</svg>