<?xml version="1.0" encoding="UTF-8"?><svg id="_Слой_4" xmlns="http://www.w3.org/2000/svg" viewBox="0 0 1080 1080"><path d="M788.37,594.86l10.33-29.58,23.34-66.85,8.23-23.57,7.51-21.49c1.6-4.59,5.93-7.66,10.78-7.66h144.95c4.86,0,9.18-3.07,10.78-7.66l15.96-45.73c2.59-7.43-2.92-15.19-10.78-15.19h-169.33c-34.33,0-64.9,21.71-76.21,54.12l-5.05,14.45-10.18,29.15-8.22,23.57-23.35,66.85-10.32,29.58-13.69,39.21-7.5,21.49c-8.08,23.13,9.09,47.3,33.59,47.3h250.73c4.86,0,9.18-3.07,10.78-7.66l16.04-45.95c2.59-7.43-2.92-15.19-10.78-15.19h-195.22c-7.86,0-13.38-7.76-10.78-15.19l8.39-24.02Z" fill="#009fe3" stroke="#1d1d1b" stroke-miterlimit="10"/><path d="M743.58,377.14h-217.28c-4.86,0-9.18,3.07-10.78,7.66l-15.96,45.73c-2.59,7.43,2.92,15.19,10.78,15.19h44.22c7.86,0,13.38,7.76,10.78,15.19l-4.88,13.96-8.22,23.57-23.35,66.85-10.32,29.58-13.69,39.21-18.72,53.6c-2.59,7.43,2.92,15.19,10.78,15.19h57.95c4.86,0,9.18-3.07,10.78-7.66l21.35-61.13,13.69-39.21,10.32-29.58,23.35-66.85,8.22-23.57,7.51-21.49c1.6-4.59,5.93-7.66,10.78-7.66h66.72c4.86,0,9.18-3.07,10.78-7.66l15.96-45.73c2.59-7.43-2.92-15.19-10.78-15.19Z" fill="#009fe3" stroke="#1d1d1b" stroke-miterlimit="10"/><path d="M414.15,377.14c-4.86,0-9.18,3.07-10.78,7.66l-21.27,60.91-10.18,29.15-5.56,15.91c-1.6,4.59-5.93,7.66-10.78,7.66h-102.4c-7.86,0-13.38-7.76-10.78-15.19l2.93-8.38,10.18-29.15,18.64-53.38c2.59-7.43-2.92-15.19-10.78-15.19h-56.92c-4.86,0-9.18,3.07-10.78,7.66l-21.27,60.91-10.18,29.15-5.56,15.91c-1.6,4.59-5.93,7.66-10.78,7.66h-61.97c-4.86,0-9.18,3.07-10.78,7.66l-15.36,44.01c-2.59,7.43,2.92,15.19,10.78,15.19h46.02c7.86,0,13.38,7.76,10.78,15.19l-5.03,14.39-13.69,39.21-18.72,53.6c-2.59,7.43,2.92,15.19,10.78,15.19h56.92c4.86,0,9.18-3.07,10.78-7.66l21.35-61.13,13.69-39.21,7.66-21.92c1.6-4.59,5.93-7.66,10.78-7.66h102.4c7.86,0,13.38,7.76,10.78,15.19l-5.03,14.39-13.69,39.21-18.72,53.6c-2.59,7.43,2.92,15.19,10.78,15.19h57.63c4.86,0,9.18-3.07,10.78-7.66l21.35-61.13,13.69-39.21,10.33-29.58,23.34-66.85,8.23-23.57,10.18-29.15,18.64-53.38c2.59-7.43-2.92-15.19-10.78-15.19h-57.63Z" fill="#009fe3" stroke="#1d1d1b" stroke-miterlimit="10"/></svg>