<?xml version="1.0" encoding="UTF-8"?>
<svg id="_Splash" data-name="Splash" xmlns="http://www.w3.org/2000/svg" viewBox="0 0 1920 1920">
  <defs>
    <style>
      .cls-1 {
        fill: #db7c26;
      }

      .cls-2 {
        fill: none;
      }
    </style>
  </defs>
  <rect class="cls-2" width="1920" height="1920"/>
  <path class="cls-2" d="M960,1920H0v-960c0,530.19,429.81,960,960,960Z"/>
  <path class="cls-2" d="M0,960V0h960C429.81,0,0,429.81,0,960Z"/>
  <path class="cls-2" d="M1920,0v960C1920,429.81,1490.19,0,960,0h960Z"/>
  <path class="cls-2" d="M1920,960v960h-960c530.19,0,960-429.81,960-960Z"/>
  <g>
    <path class="cls-1" d="M1307.71,785.04l14.42-41.4,32.79-93.72,11.63-33.02,10.7-30.23c2.33-6.51,8.37-10.7,15.12-10.7h203.26c6.74,0,12.79-4.19,15.12-10.7l22.33-63.95c3.72-10.47-4.19-21.16-15.12-21.16h-237.45c-48.14,0-90.93,30.47-106.75,75.82l-7.21,20.23-14.19,40.7-11.63,33.02-32.79,93.72-14.42,41.4-19.07,55.12-10.7,30.23c-11.4,32.33,12.79,66.28,47.21,66.28h351.63c6.74,0,12.79-4.19,15.12-10.7l22.33-64.42c3.72-10.47-4.19-21.16-15.12-21.16h-273.73c-10.93,0-18.84-10.7-15.12-21.16l11.86-33.72h0l-.23-.47Z"/>
    <path class="cls-1" d="M1244.92,479.69h-304.66c-6.74,0-12.79,4.19-15.12,10.7l-22.33,63.95c-3.72,10.47,4.19,21.16,15.12,21.16h62.09c10.93,0,18.84,10.7,15.12,21.16l-6.98,19.54-11.63,33.02-32.79,93.72-14.42,41.4-19.07,55.12-26.28,75.35c-3.72,10.47,4.19,21.16,15.12,21.16h81.4c6.74,0,12.79-4.19,15.12-10.7l30-85.58,19.07-55.12,14.42-41.4,32.79-93.72,11.63-33.02,10.7-30.23c2.33-6.51,8.37-10.7,15.12-10.7h93.49c6.74,0,12.79-4.19,15.12-10.7l22.33-63.95c3.72-10.47-4.19-21.16-15.12-21.16h-.23Z"/>
    <path class="cls-1" d="M783.06,479.69c-6.74,0-12.79,4.19-15.12,10.7l-29.77,85.35-14.19,40.7-7.67,22.33c-2.33,6.51-8.37,10.7-15.12,10.7h-143.49c-10.93,0-18.84-10.7-15.12-21.16l4.19-11.86,14.19-40.7,26.05-74.88c3.72-10.47-4.19-21.16-15.12-21.16h-79.77c-6.74,0-12.79,4.19-15.12,10.7l-29.77,85.35-14.19,40.7-7.67,22.33c-2.33,6.51-8.37,10.7-15.12,10.7h-86.98c-6.74,0-12.79,4.19-15.12,10.7l-21.63,61.86c-3.72,10.47,4.19,21.16,15.12,21.16h64.42c10.93,0,18.84,10.7,15.12,21.16l-7.21,20.23-19.07,55.12-26.28,75.35c-3.72,10.47,4.19,21.16,15.12,21.16h79.77c6.74,0,12.79-4.19,15.12-10.7l30-85.58,19.07-55.12,10.7-30.7c2.33-6.51,8.37-10.7,15.12-10.7h143.49c10.93,0,18.84,10.7,15.12,21.16l-7.21,20.23-19.07,55.12-26.28,75.35c-3.72,10.47,4.19,21.16,15.12,21.16h80.7c6.74,0,12.79-4.19,15.12-10.7l30-85.58,19.07-55.12,14.42-41.4,32.79-93.72,11.63-33.02,14.19-40.7,26.05-74.88c3.72-10.47-4.19-21.16-15.12-21.16h-80.7l.23-.47Z"/>
  </g>
  <g>
    <rect class="cls-1" x="246" y="1087" width="198" height="198" rx="23.95" ry="23.95"/>
    <rect class="cls-1" x="444" y="1285" width="198" height="198" rx="23.95" ry="23.95"/>
    <rect class="cls-1" x="840" y="1285" width="198" height="198" rx="23.95" ry="23.95"/>
    <rect class="cls-1" x="642" y="1087" width="198" height="198" rx="23.95" ry="23.95"/>
    <rect class="cls-1" x="1038" y="1087" width="198" height="198" rx="23.95" ry="23.95"/>
    <rect class="cls-1" x="1236" y="1285" width="198" height="198" rx="23.95" ry="23.95"/>
    <rect class="cls-1" x="1434" y="1087" width="198" height="198" rx="23.95" ry="23.95"/>
  </g>
</svg>