<?xml version="1.0" encoding="UTF-8"?>
<svg xmlns="http://www.w3.org/2000/svg" version="1.1" viewBox="0 0 1920 1920">
  <defs>
    <style>
      .cls-1 {
        fill: #db7c26;
      }

      .cls-2 {
        fill: none;
      }

      .cls-3 {
        fill: #142f5f;
      }
    </style>
  </defs>
  <!-- Generator: Adobe Illustrator 28.7.1, SVG Export Plug-In . SVG Version: 1.2.0 Build 142)  -->
  <g>
    <g id="_Splash">
      <circle class="cls-3" cx="960" cy="960" r="960"/>
      <g>
        <path class="cls-1" d="M1307.7,785l14.4-41.4,32.8-93.7,11.6-33,10.7-30.2c2.3-6.5,8.4-10.7,15.1-10.7h203.3c6.7,0,12.8-4.2,15.1-10.7l22.3-64c3.7-10.5-4.2-21.2-15.1-21.2h-237.4c-48.1,0-90.9,30.5-106.8,75.8l-7.2,20.2-14.2,40.7-11.6,33-32.8,93.7-14.4,41.4-19.1,55.1-10.7,30.2c-11.4,32.3,12.8,66.3,47.2,66.3h351.6c6.7,0,12.8-4.2,15.1-10.7l22.3-64.4c3.7-10.5-4.2-21.2-15.1-21.2h-273.7c-10.9,0-18.8-10.7-15.1-21.2l11.9-33.7h0l-.2-.5h0Z"/>
        <path class="cls-1" d="M1244.9,479.7h-304.7c-6.7,0-12.8,4.2-15.1,10.7l-22.3,64c-3.7,10.5,4.2,21.2,15.1,21.2h62.1c10.9,0,18.8,10.7,15.1,21.2l-7,19.5-11.6,33-32.8,93.7-14.4,41.4-19.1,55.1-26.3,75.3c-3.7,10.5,4.2,21.2,15.1,21.2h81.4c6.7,0,12.8-4.2,15.1-10.7l30-85.6,19.1-55.1,14.4-41.4,32.8-93.7,11.6-33,10.7-30.2c2.3-6.5,8.4-10.7,15.1-10.7h93.5c6.7,0,12.8-4.2,15.1-10.7l22.3-64c3.7-10.5-4.2-21.2-15.1-21.2h-.2Z"/>
        <path class="cls-1" d="M783.1,479.7c-6.7,0-12.8,4.2-15.1,10.7l-29.8,85.3-14.2,40.7-7.7,22.3c-2.3,6.5-8.4,10.7-15.1,10.7h-143.5c-10.9,0-18.8-10.7-15.1-21.2l4.2-11.9,14.2-40.7,26-74.9c3.7-10.5-4.2-21.2-15.1-21.2h-79.8c-6.7,0-12.8,4.2-15.1,10.7l-29.8,85.4-14.2,40.7-7.7,22.3c-2.3,6.5-8.4,10.7-15.1,10.7h-87c-6.7,0-12.8,4.2-15.1,10.7l-21.6,61.9c-3.7,10.5,4.2,21.2,15.1,21.2h64.4c10.9,0,18.8,10.7,15.1,21.2l-7.2,20.2-19.1,55.1-26.3,75.3c-3.7,10.5,4.2,21.2,15.1,21.2h79.8c6.7,0,12.8-4.2,15.1-10.7l30-85.6,19.1-55.1,10.7-30.7c2.3-6.5,8.4-10.7,15.1-10.7h143.5c10.9,0,18.8,10.7,15.1,21.2l-7.2,20.2-19.1,55.1-26.3,75.3c-3.7,10.5,4.2,21.2,15.1,21.2h80.7c6.7,0,12.8-4.2,15.1-10.7l30-85.6,19.1-55.1,14.4-41.4,32.8-93.7,11.6-33,14.2-40.7,26-74.9c3.7-10.5-4.2-21.2-15.1-21.2h-80.7l.2-.5h0Z"/>
      </g>
      <g>
        <rect class="cls-1" x="246" y="1087" width="198" height="198" rx="23.9" ry="23.9"/>
        <rect class="cls-1" x="444" y="1285" width="198" height="198" rx="23.9" ry="23.9"/>
        <rect class="cls-1" x="840" y="1285" width="198" height="198" rx="23.9" ry="23.9"/>
        <rect class="cls-1" x="642" y="1087" width="198" height="198" rx="23.9" ry="23.9"/>
        <rect class="cls-1" x="1038" y="1087" width="198" height="198" rx="23.9" ry="23.9"/>
        <rect class="cls-1" x="1236" y="1285" width="198" height="198" rx="23.9" ry="23.9"/>
        <rect class="cls-1" x="1434" y="1087" width="198" height="198" rx="23.9" ry="23.9"/>
      </g>
      <rect class="cls-2" x="2883.1" width="1920" height="1920"/>
      <path class="cls-2" d="M3843.1,1920h-960v-960c0,530.2,429.8,960,960,960Z"/>
      <path class="cls-2" d="M2883.1,960V0h960c-530.2,0-960,429.8-960,960Z"/>
      <path class="cls-2" d="M4803.1,0v960C4803.1,429.8,4373.3,0,3843.1,0h960Z"/>
      <path class="cls-2" d="M4803.1,960v960h-960c530.2,0,960-429.8,960-960Z"/>
      <g>
        <path class="cls-1" d="M4190.8,785l14.4-41.4,32.8-93.7,11.6-33,10.7-30.2c2.3-6.5,8.4-10.7,15.1-10.7h203.3c6.7,0,12.8-4.2,15.1-10.7l22.3-64c3.7-10.5-4.2-21.2-15.1-21.2h-237.4c-48.1,0-90.9,30.5-106.8,75.8l-7.2,20.2-14.2,40.7-11.6,33-32.8,93.7-14.4,41.4-19.1,55.1-10.7,30.2c-11.4,32.3,12.8,66.3,47.2,66.3h351.6c6.7,0,12.8-4.2,15.1-10.7l22.3-64.4c3.7-10.5-4.2-21.2-15.1-21.2h-273.7c-10.9,0-18.8-10.7-15.1-21.2l11.9-33.7h0l-.2-.5h0Z"/>
        <path class="cls-1" d="M4128,479.7h-304.7c-6.7,0-12.8,4.2-15.1,10.7l-22.3,64c-3.7,10.5,4.2,21.2,15.1,21.2h62.1c10.9,0,18.8,10.7,15.1,21.2l-7,19.5-11.6,33-32.8,93.7-14.4,41.4-19.1,55.1-26.3,75.3c-3.7,10.5,4.2,21.2,15.1,21.2h81.4c6.7,0,12.8-4.2,15.1-10.7l30-85.6,19.1-55.1,14.4-41.4,32.8-93.7,11.6-33,10.7-30.2c2.3-6.5,8.4-10.7,15.1-10.7h93.5c6.7,0,12.8-4.2,15.1-10.7l22.3-64c3.7-10.5-4.2-21.2-15.1-21.2h-.2Z"/>
        <path class="cls-1" d="M3666.1,479.7c-6.7,0-12.8,4.2-15.1,10.7l-29.8,85.3-14.2,40.7-7.7,22.3c-2.3,6.5-8.4,10.7-15.1,10.7h-143.5c-10.9,0-18.8-10.7-15.1-21.2l4.2-11.9,14.2-40.7,26-74.9c3.7-10.5-4.2-21.2-15.1-21.2h-79.8c-6.7,0-12.8,4.2-15.1,10.7l-29.8,85.4-14.2,40.7-7.7,22.3c-2.3,6.5-8.4,10.7-15.1,10.7h-87c-6.7,0-12.8,4.2-15.1,10.7l-21.6,61.9c-3.7,10.5,4.2,21.2,15.1,21.2h64.4c10.9,0,18.8,10.7,15.1,21.2l-7.2,20.2-19.1,55.1-26.3,75.3c-3.7,10.5,4.2,21.2,15.1,21.2h79.8c6.7,0,12.8-4.2,15.1-10.7l30-85.6,19.1-55.1,10.7-30.7c2.3-6.5,8.4-10.7,15.1-10.7h143.5c10.9,0,18.8,10.7,15.1,21.2l-7.2,20.2-19.1,55.1-26.3,75.3c-3.7,10.5,4.2,21.2,15.1,21.2h80.7c6.7,0,12.8-4.2,15.1-10.7l30-85.6,19.1-55.1,14.4-41.4,32.8-93.7,11.6-33,14.2-40.7,26-74.9c3.7-10.5-4.2-21.2-15.1-21.2h-80.7l.2-.5h0Z"/>
      </g>
      <g>
        <rect class="cls-1" x="3129.1" y="1087" width="198" height="198" rx="23.9" ry="23.9"/>
        <rect class="cls-1" x="3327.1" y="1285" width="198" height="198" rx="23.9" ry="23.9"/>
        <rect class="cls-1" x="3723.1" y="1285" width="198" height="198" rx="24" ry="24"/>
        <rect class="cls-1" x="3525.1" y="1087" width="198" height="198" rx="23.9" ry="23.9"/>
        <rect class="cls-1" x="3921.1" y="1087" width="198" height="198" rx="23.9" ry="23.9"/>
        <rect class="cls-1" x="4119.1" y="1285" width="198" height="198" rx="23.9" ry="23.9"/>
        <rect class="cls-1" x="4317.1" y="1087" width="198" height="198" rx="23.9" ry="23.9"/>
      </g>
    </g>
  </g>
</svg>