<?xml version="1.0" encoding="UTF-8"?><svg id="_Слой_4" xmlns="http://www.w3.org/2000/svg" viewBox="0 0 456 456"><path d="M275.06,238.39l1.96-5.6,4.42-12.67,1.56-4.47,1.42-4.07c.3-.87,1.12-1.45,2.04-1.45h27.46c.92,0,1.74-.58,2.04-1.45l3.02-8.66c.49-1.41-.55-2.88-2.04-2.88h-32.08c-6.5,0-12.3,4.11-14.44,10.25l-.96,2.74-1.93,5.52-1.56,4.47-4.42,12.67-1.96,5.6-2.59,7.43-1.42,4.07c-1.53,4.38,1.72,8.96,6.36,8.96h47.51c.92,0,1.74-.58,2.04-1.45l3.04-8.71c.49-1.41-.55-2.88-2.04-2.88h-36.99c-1.49,0-2.53-1.47-2.04-2.88l1.59-4.55Z" fill="#fff" stroke-width="0"/><path d="M266.57,197.14h-41.17c-.92,0-1.74.58-2.04,1.45l-3.02,8.66c-.49,1.41.55,2.88,2.04,2.88h8.38c1.49,0,2.53,1.47,2.04,2.88l-.92,2.65-1.56,4.47-4.42,12.67-1.96,5.6-2.59,7.43-3.55,10.16c-.49,1.41.55,2.88,2.04,2.88h10.98c.92,0,1.74-.58,2.04-1.45l4.04-11.58,2.59-7.43,1.96-5.6,4.42-12.67,1.56-4.47,1.42-4.07c.3-.87,1.12-1.45,2.04-1.45h12.64c.92,0,1.74-.58,2.04-1.45l3.02-8.66c.49-1.41-.55-2.88-2.04-2.88Z" fill="#fff" stroke-width="0"/><path d="M204.16,197.14c-.92,0-1.74.58-2.04,1.45l-4.03,11.54-1.93,5.52-1.05,3.02c-.3.87-1.12,1.45-2.04,1.45h-19.4c-1.49,0-2.53-1.47-2.04-2.88l.55-1.59,1.93-5.52,3.53-10.11c.49-1.41-.55-2.88-2.04-2.88h-10.79c-.92,0-1.74.58-2.04,1.45l-4.03,11.54-1.93,5.52-1.05,3.02c-.3.87-1.12,1.45-2.04,1.45h-11.74c-.92,0-1.74.58-2.04,1.45l-2.91,8.34c-.49,1.41.55,2.88,2.04,2.88h8.72c1.49,0,2.53,1.47,2.04,2.88l-.95,2.73-2.59,7.43-3.55,10.16c-.49,1.41.55,2.88,2.04,2.88h10.79c.92,0,1.74-.58,2.04-1.45l4.04-11.58,2.59-7.43,1.45-4.15c.3-.87,1.12-1.45,2.04-1.45h19.4c1.49,0,2.53,1.47,2.04,2.88l-.95,2.73-2.59,7.43-3.55,10.16c-.49,1.41.55,2.88,2.04,2.88h10.92c.92,0,1.74-.58,2.04-1.45l4.04-11.58,2.59-7.43,1.96-5.6,4.42-12.67,1.56-4.47,1.93-5.52,3.53-10.11c.49-1.41-.55-2.88-2.04-2.88h-10.92Z" fill="#fff" stroke-width="0"/></svg>