<?xml version="1.0" encoding="UTF-8"?>
<svg id="_Слой_4" data-name=" Слой 4" xmlns="http://www.w3.org/2000/svg" version="1.1" viewBox="0 0 1080 1080">
  <defs>
    <style>
      .cls-1 {
        fill: #fff;
      }

      .cls-1, .cls-2 {
        stroke-width: 0px;
      }

      .cls-2 {
        fill: #009fe3;
      }
    </style>
  </defs>
  <rect class="cls-2" width="1080" height="1080"/>
  <path class="cls-1" d="M689.8,573.1l6.2-17.8,14.1-40.3,5-14.2,4.6-13c1-2.8,3.6-4.6,6.5-4.6h87.4c2.9,0,5.5-1.8,6.5-4.6l9.6-27.5c1.6-4.5-1.8-9.1-6.5-9.1h-102.1c-20.7,0-39.1,13.1-45.9,32.6l-3.1,8.7-6.1,17.5-5,14.2-14.1,40.3-6.2,17.8-8.2,23.7-4.6,13c-4.9,13.9,5.5,28.5,20.3,28.5h151.2c2.9,0,5.5-1.8,6.5-4.6l9.6-27.7c1.6-4.5-1.8-9.1-6.5-9.1h-117.7c-4.7,0-8.1-4.6-6.5-9.1l5.1-14.5h0Z"/>
  <path class="cls-1" d="M662.8,441.8h-131c-2.9,0-5.5,1.8-6.5,4.6l-9.6,27.5c-1.6,4.5,1.8,9.1,6.5,9.1h26.7c4.7,0,8.1,4.6,6.5,9.1l-3,8.4-5,14.2-14.1,40.3-6.2,17.8-8.2,23.7-11.3,32.4c-1.6,4.5,1.8,9.1,6.5,9.1h35c2.9,0,5.5-1.8,6.5-4.6l12.9-36.8,8.2-23.7,6.2-17.8,14.1-40.3,5-14.2,4.6-13c1-2.8,3.6-4.6,6.5-4.6h40.2c2.9,0,5.5-1.8,6.5-4.6l9.6-27.5c1.6-4.5-1.8-9.1-6.5-9.1h0Z"/>
  <path class="cls-1" d="M464.2,441.8c-2.9,0-5.5,1.8-6.5,4.6l-12.8,36.7-6.1,17.5-3.3,9.6c-1,2.8-3.6,4.6-6.5,4.6h-61.7c-4.7,0-8.1-4.6-6.5-9.1l1.8-5.1,6.1-17.5,11.2-32.2c1.6-4.5-1.8-9.1-6.5-9.1h-34.3c-2.9,0-5.5,1.8-6.5,4.6l-12.8,36.7-6.1,17.5-3.3,9.6c-1,2.8-3.6,4.6-6.5,4.6h-37.4c-2.9,0-5.5,1.8-6.5,4.6l-9.3,26.6c-1.6,4.5,1.8,9.1,6.5,9.1h27.7c4.7,0,8.1,4.6,6.5,9.1l-3.1,8.7-8.2,23.7-11.3,32.4c-1.6,4.5,1.8,9.1,6.5,9.1h34.3c2.9,0,5.5-1.8,6.5-4.6l12.9-36.8,8.2-23.7,4.6-13.2c1-2.8,3.6-4.6,6.5-4.6h61.7c4.7,0,8.1,4.6,6.5,9.1l-3.1,8.7-8.2,23.7-11.3,32.4c-1.6,4.5,1.8,9.1,6.5,9.1h34.7c2.9,0,5.5-1.8,6.5-4.6l12.9-36.8,8.2-23.7,6.2-17.8,14.1-40.3,5-14.2,6.1-17.5,11.2-32.2c1.6-4.5-1.8-9.1-6.5-9.1h-34.7Z"/>
</svg>