<?xml version="1.0" encoding="UTF-8"?>
<svg id="Glyph" xmlns="http://www.w3.org/2000/svg" version="1.1" viewBox="0 0 32 32">
  <defs>
    <style>
      .cls-1 {
        fill: #fff;
        stroke-width: 0px;
      }
    </style>
  </defs>
  <path class="cls-1" d="M29,16c0,1.1-.9,2-2,2H11c-1.1,0-2-.9-2-2s.9-2,2-2h16c1.1,0,2,.9,2,2Z"/>
  <path class="cls-1" d="M29,6c0,1.1-.9,2-2,2H11c-1.1,0-2-.9-2-2s.9-2,2-2h16c1.1,0,2,.9,2,2Z"/>
  <path class="cls-1" d="M29,26c0,1.1-.9,2-2,2H11c-1.1,0-2-.9-2-2s.9-2,2-2h16c1.1,0,2,.9,2,2Z"/>
  <path class="cls-1" d="M3,6c0,1.1.9,2,2,2s2-.9,2-2-.9-2-2-2-2,.9-2,2Z"/>
  <path class="cls-1" d="M3,16c0,1.1.9,2,2,2s2-.9,2-2-.9-2-2-2-2,.9-2,2Z"/>
  <path class="cls-1" d="M3,26c0,1.1.9,2,2,2s2-.9,2-2-.9-2-2-2-2,.9-2,2Z"/>
</svg>