<?xml version="1.0" encoding="UTF-8"?>
<svg id="_Слой_4" data-name=" Слой 4" xmlns="http://www.w3.org/2000/svg" version="1.1" viewBox="0 0 720 1080">
  <defs>
    <style>
      .cls-1 {
        fill: #000;
      }

      .cls-1, .cls-2 {
        stroke-width: 0px;
      }

      .cls-2 {
        fill: #fff;
      }
    </style>
  </defs>
  <path class="cls-2" d="M539.7,579.6l7.5-21.4,16.9-48.4,6-17.1,5.4-15.5c1.1-3.3,4.3-5.5,7.8-5.5h104.9c3.5,0,6.6-2.2,7.8-5.5l11.5-33.1c1.9-5.4-2.1-11-7.8-11h-122.5c-24.8,0-47,15.7-55.1,39.1l-3.7,10.5-7.4,21.1-6,17.1-16.9,48.4-7.5,21.4-9.9,28.4-5.4,15.5c-5.8,16.7,6.6,34.2,24.3,34.2h181.4c3.5,0,6.6-2.2,7.8-5.5l11.6-33.3c1.9-5.4-2.1-11-7.8-11h-141.2c-5.7,0-9.7-5.6-7.8-11l6.1-17.4h0Z"/>
  <path class="cls-2" d="M507.3,422.1h-157.2c-3.5,0-6.6,2.2-7.8,5.5l-11.5,33.1c-1.9,5.4,2.1,11,7.8,11h32c5.7,0,9.7,5.6,7.8,11l-3.5,10.1-6,17.1-16.9,48.4-7.5,21.4-9.9,28.4-13.6,38.8c-1.9,5.4,2.1,11,7.8,11h41.9c3.5,0,6.6-2.2,7.8-5.5l15.4-44.2,9.9-28.4,7.5-21.4,16.9-48.4,6-17.1,5.4-15.5c1.1-3.3,4.3-5.5,7.8-5.5h48.3c3.5,0,6.6-2.2,7.8-5.5l11.5-33.1c1.9-5.4-2.1-11-7.8-11h0Z"/>
  <path class="cls-2" d="M269,422.1c-3.5,0-6.6,2.2-7.8,5.5l-15.4,44.1-7.4,21.1-4,11.5c-1.1,3.3-4.3,5.5-7.8,5.5h-74.1c-5.7,0-9.7-5.6-7.8-11l2.1-6.1,7.4-21.1,13.5-38.6c1.9-5.4-2.1-11-7.8-11h-41.2c-3.5,0-6.6,2.2-7.8,5.5l-15.4,44.1-7.4,21.1-4,11.5c-1.1,3.3-4.3,5.5-7.8,5.5H31.5c-3.5,0-6.6,2.2-7.8,5.5l-11.1,31.8c-1.9,5.4,2.1,11,7.8,11h33.3c5.7,0,9.7,5.6,7.8,11l-3.6,10.4-9.9,28.4-13.6,38.8c-1.9,5.4,2.1,11,7.8,11h41.2c3.5,0,6.6-2.2,7.8-5.5l15.4-44.2,9.9-28.4,5.5-15.8c1.1-3.3,4.3-5.5,7.8-5.5h74.1c5.7,0,9.7,5.6,7.8,11l-3.6,10.4-9.9,28.4-13.6,38.8c-1.9,5.4,2.1,11,7.8,11h41.7c3.5,0,6.6-2.2,7.8-5.5l15.4-44.2,9.9-28.4,7.5-21.4,16.9-48.4,6-17.1,7.4-21.1,13.5-38.6c1.9-5.4-2.1-11-7.8-11h-41.7v-.2Z"/>
  <g>
    <path class="cls-1" d="M210.5,1123v16.3h-12.6v65.1h-21.2v-65.1h-12.5v-16.3h46.3Z"/>
    <path class="cls-1" d="M228.6,1163.5h-19.1v-4.5c0-5.2.6-9.1,1.8-11.9,1.2-2.8,3.6-5.3,7.2-7.4,3.6-2.1,8.2-3.2,14-3.2s12.1,1.2,15.5,3.6c3.5,2.4,5.6,5.4,6.3,9,.7,3.5,1.1,10.8,1.1,21.9v33.5h-19.8v-5.9c-1.2,2.4-2.8,4.2-4.8,5.4s-4.3,1.8-7,1.8-6.8-1-9.8-3c-3-2-4.5-6.4-4.5-13.1v-5.5c0-5,.8-8.4,2.4-10.2,1.6-1.8,5.5-3.9,11.7-6.3,6.7-2.6,10.2-4.4,10.7-5.3.5-.9.7-2.7.7-5.5s-.3-5.8-.8-6.8c-.5-1.1-1.4-1.6-2.6-1.6s-2.2.4-2.6,1.3c-.3.9-.5,3.2-.5,6.9v7ZM235,1172.6c-3.3,2.4-5.1,4.4-5.7,6-.5,1.6-.8,3.9-.8,6.9s.2,5.7.7,6.7,1.3,1.5,2.7,1.5,2.1-.4,2.5-1.2c.4-.8.6-2.9.6-6.2v-13.7Z"/>
    <path class="cls-1" d="M302.6,1137.6l-8.1,31.9,9.8,34.9h-19.8c-2-8.8-3.4-16.4-4.5-22.7-1.4,7.9-2.8,15.5-4.4,22.7h-17l8.8-34.9-8.8-31.9h17c2.7,13.6,4.2,21.4,4.4,23.2,2-11.4,3.4-19.1,4.5-23.2h18Z"/>
    <path class="cls-1" d="M353,1161.1v16.3c0,6-.3,10.4-.9,13.2-.6,2.8-1.9,5.4-3.9,7.8-2,2.4-4.5,4.2-7.6,5.4-3.1,1.2-6.7,1.7-10.7,1.7s-8.3-.5-11.4-1.5c-3.1-1-5.5-2.5-7.3-4.5-1.7-2-3-4.4-3.7-7.2-.7-2.8-1.1-7.1-1.1-12.8v-17.1c0-6.2.7-11,2-14.5,1.3-3.5,3.8-6.3,7.2-8.4,3.5-2.1,7.9-3.2,13.4-3.2s8.5.7,11.7,2c3.3,1.4,5.8,3.1,7.6,5.3,1.8,2.2,3,4.4,3.6,6.7s1,5.8,1,10.6ZM332.6,1156.1c0-3.4-.2-5.6-.6-6.5-.4-.9-1.2-1.3-2.4-1.3s-2,.4-2.4,1.3c-.4.9-.6,3-.6,6.5v30.1c0,3.2.2,5.2.6,6.2.4,1,1.2,1.4,2.4,1.4s2-.4,2.4-1.3c.4-.9.6-2.7.6-5.6v-30.8Z"/>
    <path class="cls-1" d="M379.7,1137.6l-.4,6.3c1.6-2.5,3.5-4.4,5.6-5.7,2.2-1.3,4.7-1.9,7.4-1.9,5.4,0,9.7,2.5,12.8,7.6,1.7-2.5,3.6-4.4,5.8-5.7,2.1-1.3,4.5-1.9,7.1-1.9s6.3.8,8.6,2.5c2.3,1.7,3.7,3.7,4.4,6.2.6,2.4,1,6.4,1,11.8v47.4h-19.7v-43.5c0-5.7-.2-9.2-.6-10.6-.4-1.4-1.3-2-2.7-2s-2.4.7-2.8,2c-.4,1.3-.6,4.9-.6,10.6v43.5h-19.7v-42.4c0-6.5-.2-10.5-.5-11.8-.3-1.3-1.2-2-2.6-2s-1.7.3-2.3,1c-.6.7-1,1.5-1.1,2.5,0,1-.1,3.1-.1,6.3v46.3h-19.7v-66.7h20.1Z"/>
    <path class="cls-1" d="M485.1,1172.2h-26.3v14.4c0,3,.2,5,.7,5.8.4.9,1.3,1.3,2.5,1.3s2.6-.6,3.1-1.7c.5-1.2.8-3.4.8-6.7v-8.8h19.3v4.9c0,4.1-.3,7.3-.8,9.5-.5,2.2-1.7,4.6-3.6,7.1s-4.3,4.4-7.3,5.7c-2.9,1.3-6.6,1.9-11,1.9s-8.1-.6-11.4-1.9c-3.3-1.2-5.8-2.9-7.7-5.1-1.8-2.2-3.1-4.5-3.8-7.1-.7-2.6-1.1-6.4-1.1-11.3v-19.5c0-5.8.8-10.4,2.4-13.8,1.6-3.4,4.2-6,7.7-7.7,3.6-1.8,7.7-2.7,12.4-2.7s10.4,1.1,14.1,3.2c3.7,2.2,6.3,5,7.8,8.6,1.5,3.6,2.2,8.6,2.2,15.1v8.9ZM464.7,1161.3v-4.9c0-3.5-.2-5.7-.6-6.7-.4-1-1.1-1.5-2.3-1.5s-2.3.4-2.6,1.3c-.3.9-.5,3.2-.5,6.9v4.9h5.9Z"/>
    <path class="cls-1" d="M513.1,1128.7v10.5h5.5v10.6h-5.5v35.7c0,4.4.2,6.8.7,7.3.5.5,2.3.8,5.7.8v10.8h-8.2c-4.6,0-7.9-.2-9.9-.6-2-.4-3.7-1.3-5.2-2.7-1.5-1.4-2.4-3-2.8-4.8-.4-1.8-.6-6-.6-12.6v-33.9h-4.4v-10.6h4.4v-10.5h20.4Z"/>
    <path class="cls-1" d="M543.4,1137.6l-.8,8.8c2.9-6.3,7.2-9.6,12.8-10v23.5c-3.7,0-6.5.5-8.2,1.5-1.7,1-2.8,2.4-3.2,4.2-.4,1.8-.6,5.9-.6,12.4v26.4h-20.3v-66.7h20.3Z"/>
  </g>
</svg>