<?xml version="1.0" encoding="UTF-8"?>
<svg xmlns="http://www.w3.org/2000/svg" version="1.1" viewBox="0 0 1080 1080">
  <defs>
    <style>
      .cls-1 {
        fill: #fff;
      }
    </style>
  </defs>
  <!-- Generator: Adobe Illustrator 28.7.1, SVG Export Plug-In . SVG Version: 1.2.0 Build 142)  -->
  <g>
    <g id="_Слой_1" data-name="Слой_1">
      <path class="cls-1" d="M3205.2,560.1l6.2-17.8,14.1-40.3,5-14.2,4.6-13c1-2.8,3.6-4.6,6.5-4.6h87.4c2.9,0,5.5-1.8,6.5-4.6l9.6-27.5c1.6-4.5-1.8-9.1-6.5-9.1h-102.1c-20.7,0-39.1,13.1-45.9,32.6l-3.1,8.7-6.1,17.5-5,14.2-14.1,40.3-6.2,17.8-8.2,23.7-4.6,13c-4.9,13.9,5.5,28.5,20.3,28.5h151.2c2.9,0,5.5-1.8,6.5-4.6l9.6-27.7c1.6-4.5-1.8-9.1-6.5-9.1h-117.7c-4.7,0-8.1-4.6-6.5-9.1l5.1-14.5h0v-.2h-.1Z"/>
      <path class="cls-1" d="M3178.2,428.8h-131c-2.9,0-5.5,1.8-6.5,4.6l-9.6,27.5c-1.6,4.5,1.8,9.1,6.5,9.1h26.7c4.7,0,8.1,4.6,6.5,9.1l-3,8.4-5,14.2-14.1,40.3-6.2,17.8-8.2,23.7-11.3,32.4c-1.6,4.5,1.8,9.1,6.5,9.1h35c2.9,0,5.5-1.8,6.5-4.6l12.9-36.8,8.2-23.7,6.2-17.8,14.1-40.3,5-14.2,4.6-13c1-2.8,3.6-4.6,6.5-4.6h40.2c2.9,0,5.5-1.8,6.5-4.6l9.6-27.5c1.6-4.5-1.8-9.1-6.5-9.1h0,0Z"/>
      <path class="cls-1" d="M2979.6,428.8c-2.9,0-5.5,1.8-6.5,4.6l-12.8,36.7-6.1,17.5-3.3,9.6c-1,2.8-3.6,4.6-6.5,4.6h-61.7c-4.7,0-8.1-4.6-6.5-9.1l1.8-5.1,6.1-17.5,11.2-32.2c1.6-4.5-1.8-9.1-6.5-9.1h-34.3c-2.9,0-5.5,1.8-6.5,4.6l-12.8,36.7-6.1,17.5-3.3,9.6c-1,2.8-3.6,4.6-6.5,4.6h-37.4c-2.9,0-5.5,1.8-6.5,4.6l-9.3,26.6c-1.6,4.5,1.8,9.1,6.5,9.1h27.7c4.7,0,8.1,4.6,6.5,9.1l-3.1,8.7-8.2,23.7-11.3,32.4c-1.6,4.5,1.8,9.1,6.5,9.1h34.3c2.9,0,5.5-1.8,6.5-4.6l12.9-36.8,8.2-23.7,4.6-13.2c1-2.8,3.6-4.6,6.5-4.6h61.7c4.7,0,8.1,4.6,6.5,9.1l-3.1,8.7-8.2,23.7-11.3,32.4c-1.6,4.5,1.8,9.1,6.5,9.1h34.7c2.9,0,5.5-1.8,6.5-4.6l12.9-36.8,8.2-23.7,6.2-17.8,14.1-40.3,5-14.2,6.1-17.5,11.2-32.2c1.6-4.5-1.8-9.1-6.5-9.1h-34.7v-.2h.1Z"/>
      <g>
        <path class="cls-1" d="M1734.5,232.1h34l-37.2,175.1h-36.5l-45.2-124.3-26.3,124.3h-34l37.2-175.1h38.2l43.8,122.3,26-122.3h0Z"/>
        <path class="cls-1" d="M1840.2,407.2h-37l30.6-144h-52.5l6.6-31.1h141.8l-6.6,31.1h-52.5l-30.4,144Z"/>
        <path class="cls-1" d="M1954.5,371.2c4.4,7.1,13.9,10.7,28.2,10.7s15.8-1,21.6-2.9c11.2-3.6,17.8-10.5,19.7-20.2,1.2-5.8-.5-10.2-4.9-13.4-4.4-3.2-11.7-5.8-22.1-8.3l-17.5-4.1c-17.5-4.1-28.9-8.5-35-13.4-10-8.3-13.4-20.7-9.5-37.9,3.2-15.8,11.7-28.7,25.3-39.2,13.6-10.2,31.4-15.6,53.5-15.6s33.3,4.9,44,14.6c10.9,10,14.8,24.1,11.4,42.8h-35c1.7-10.7-1.5-18.2-9-22.6-5.1-2.9-11.9-4.4-20.2-4.4s-17.5,1.9-23.8,5.8c-6.6,3.6-10.5,9-11.9,15.8-1.2,6.3.5,10.9,5.4,14.1,3.2,1.9,10.2,4.4,21.4,7.3l28.5,7.1c12.6,3.4,21.6,7.5,27.2,12.9,8.8,8,11.4,20.2,8,35.7-3.4,15.8-12.4,29.2-26.8,39.6-14.6,10.7-32.8,16.1-55.2,16.1s-39.6-5.4-50.6-15.8c-10.7-10.2-14.3-24.6-10.5-42.8h35c-.7,8,.2,13.9,2.7,18h0Z"/>
        <path class="cls-1" d="M1868.1,630.1l-3.6-36h-64.4l-19.7,36h-38.4l99.7-175.1h41.3l24.8,175.1h-39.7ZM1816.3,564h44.3l-7.3-68.8-37,68.8Z"/>
        <path class="cls-1" d="M1777.1,677.9h43.8l19,56.9,44.3-56.9h42.3l-71.5,84.4,37.7,90.7h-44.5l-20.7-59.6-47.7,59.6h-42.6l75.1-89.3-35.3-85.8h.1Z"/>
      </g>
    </g>
  </g>
</svg>